# xmcd
#
# Track frame offsets: 
#        150
#        18319
#        33186
#        47589
#        61576
#        78590
#        96453
#        110824
#        124074
#        138829
#        155078
#        176835
#
# Disc length: 2563 seconds
#
# Revision: 0
# Processed by: cddbd v1.5.1PL2 Copyright (c) Steve Scherf et al.
# Submitted via: ExactAudioCopy v0.95b3
#
DISCID=9d0a010c
DTITLE=Siriporn Umpaipong - Klorn Ruk Vol 1
DYEAR=2001
DGENRE=Country
TTITLE0=Ai song bud chern
TTITLE1=Lang jarn nai ngarn taeng
TTITLE2=Rawung noom mia plur
TTITLE3=Tum-naeng tee mai tong karn
TTITLE4=Pook kaen hai fan khao
TTITLE5=Kuen karn por karn koi
TTITLE6=Fark song kid dong fan
TTITLE7=Luem mai long
TTITLE8=Pook fai pen ai huk
TTITLE9=Kae srao sao rong ngarn
TTITLE10=Auy porn korn wun taeng
TTITLE11=Yark hen khon chok dee
EXTD=
EXTT0=
EXTT1=
EXTT2=
EXTT3=
EXTT4=
EXTT5=
EXTT6=
EXTT7=
EXTT8=
EXTT9=
EXTT10=
EXTT11=
PLAYORDER=
